<svg xmlns="http://www.w3.org/2000/svg" width="512" height="512" viewBox="0 0 512 512">
  <defs>
    <linearGradient id="app-logo-bg" x1="15%" y1="85%" x2="85%" y2="15%">
      <stop offset="0.0%" stop-color="#0029c1"/>
      <stop offset="29.0%" stop-color="#3973ff"/>
      <stop offset="100.0%" stop-color="#0029c1"/>
    </linearGradient>
    <clipPath id="app-logo-clip"><path d="M256,0 L296.1,0.04 L312.71,0.15 L325.43,0.35 L336.15,0.62 L345.57,0.96 L354.06,1.39 L361.85,1.89 L369.07,2.47 L375.83,3.13 L382.19,3.87 L388.21,4.68 L393.93,5.57 L399.38,6.54 L404.59,7.6 L409.58,8.73 L414.37,9.94 L418.97,11.23 L423.39,12.6 L427.66,14.05 L431.77,15.59 L435.73,17.21 L439.55,18.91 L443.25,20.7 L446.81,22.57 L450.26,24.52 L453.58,26.57 L456.8,28.7 L459.9,30.92 L462.9,33.23 L465.79,35.64 L468.58,38.14 L471.27,40.73 L473.86,43.42 L476.36,46.21 L478.77,49.1 L481.08,52.1 L483.3,55.2 L485.43,58.42 L487.48,61.74 L489.43,65.19 L491.3,68.75 L493.09,72.45 L494.79,76.27 L496.41,80.23 L497.95,84.34 L499.4,88.61 L500.77,93.03 L502.06,97.63 L503.27,102.42 L504.4,107.41 L505.46,112.62 L506.43,118.07 L507.32,123.79 L508.13,129.81 L508.87,136.17 L509.53,142.93 L510.11,150.15 L510.61,157.94 L511.04,166.43 L511.38,175.85 L511.65,186.57 L511.85,199.29 L511.96,215.9 L512,256 L512,256 L511.96,296.1 L511.85,312.71 L511.65,325.43 L511.38,336.15 L511.04,345.57 L510.61,354.06 L510.11,361.85 L509.53,369.07 L508.87,375.83 L508.13,382.19 L507.32,388.21 L506.43,393.93 L505.46,399.38 L504.4,404.59 L503.27,409.58 L502.06,414.37 L500.77,418.97 L499.4,423.39 L497.95,427.66 L496.41,431.77 L494.79,435.73 L493.09,439.55 L491.3,443.25 L489.43,446.81 L487.48,450.26 L485.43,453.58 L483.3,456.8 L481.08,459.9 L478.77,462.9 L476.36,465.79 L473.86,468.58 L471.27,471.27 L468.58,473.86 L465.79,476.36 L462.9,478.77 L459.9,481.08 L456.8,483.3 L453.58,485.43 L450.26,487.48 L446.81,489.43 L443.25,491.3 L439.55,493.09 L435.73,494.79 L431.77,496.41 L427.66,497.95 L423.39,499.4 L418.97,500.77 L414.37,502.06 L409.58,503.27 L404.59,504.4 L399.38,505.46 L393.93,506.43 L388.21,507.32 L382.19,508.13 L375.83,508.87 L369.07,509.53 L361.85,510.11 L354.06,510.61 L345.57,511.04 L336.15,511.38 L325.43,511.65 L312.71,511.85 L296.1,511.96 L256,512 L256,512 L215.9,511.96 L199.29,511.85 L186.57,511.65 L175.85,511.38 L166.43,511.04 L157.94,510.61 L150.15,510.11 L142.93,509.53 L136.17,508.87 L129.81,508.13 L123.79,507.32 L118.07,506.43 L112.62,505.46 L107.41,504.4 L102.42,503.27 L97.63,502.06 L93.03,500.77 L88.61,499.4 L84.34,497.95 L80.23,496.41 L76.27,494.79 L72.45,493.09 L68.75,491.3 L65.19,489.43 L61.74,487.48 L58.42,485.43 L55.2,483.3 L52.1,481.08 L49.1,478.77 L46.21,476.36 L43.42,473.86 L40.73,471.27 L38.14,468.58 L35.64,465.79 L33.23,462.9 L30.92,459.9 L28.7,456.8 L26.57,453.58 L24.52,450.26 L22.57,446.81 L20.7,443.25 L18.91,439.55 L17.21,435.73 L15.59,431.77 L14.05,427.66 L12.6,423.39 L11.23,418.97 L9.94,414.37 L8.73,409.58 L7.6,404.59 L6.54,399.38 L5.57,393.93 L4.68,388.21 L3.87,382.19 L3.13,375.83 L2.47,369.07 L1.89,361.85 L1.39,354.06 L0.96,345.57 L0.62,336.15 L0.35,325.43 L0.15,312.71 L0.04,296.1 L0,256 L0,256 L0.04,215.9 L0.15,199.29 L0.35,186.57 L0.62,175.85 L0.96,166.43 L1.39,157.94 L1.89,150.15 L2.47,142.93 L3.13,136.17 L3.87,129.81 L4.68,123.79 L5.57,118.07 L6.54,112.62 L7.6,107.41 L8.73,102.42 L9.94,97.63 L11.23,93.03 L12.6,88.61 L14.05,84.34 L15.59,80.23 L17.21,76.27 L18.91,72.45 L20.7,68.75 L22.57,65.19 L24.52,61.74 L26.57,58.42 L28.7,55.2 L30.92,52.1 L33.23,49.1 L35.64,46.21 L38.14,43.42 L40.73,40.73 L43.42,38.14 L46.21,35.64 L49.1,33.23 L52.1,30.92 L55.2,28.7 L58.42,26.57 L61.74,24.52 L65.19,22.57 L68.75,20.7 L72.45,18.91 L76.27,17.21 L80.23,15.59 L84.34,14.05 L88.61,12.6 L93.03,11.23 L97.63,9.94 L102.42,8.73 L107.41,7.6 L112.62,6.54 L118.07,5.57 L123.79,4.68 L129.81,3.87 L136.17,3.13 L142.93,2.47 L150.15,1.89 L157.94,1.39 L166.43,0.96 L175.85,0.62 L186.57,0.35 L199.29,0.15 L215.9,0.04 L256,0 Z"/></clipPath>
  </defs>
  <rect width="512" height="512" fill="url(#app-logo-bg)" clip-path="url(#app-logo-clip)"/>
  <g transform="translate(51.20, 51.20) scale(17.0667) translate(0, 0)">
    <path fill="#ffffff" d="m14.712 2.289l-.087-.078a1 1 0 0 0-1.327.078l-.078.087a1 1 0 0 0 .078 1.326l1.299 1.297H8.999l-.24.004A6.997 6.997 0 0 0 2 11.993a6.94 6.94 0 0 0 1.189 3.899a.999.999 0 0 0 1.626-1.163l-.135-.218A4.997 4.997 0 0 1 9 6.998h5.595l-1.297 1.297l-.078.087a.999.999 0 0 0 1.492 1.326l3.006-3.003l.077-.087a1 1 0 0 0-.078-1.326zm6.075 5.771A.999.999 0 0 0 19 8.677c0 .209.064.402.172.561a4.997 4.997 0 0 1-4.17 7.75H9.414l1.294-1.29l.083-.096a1 1 0 0 0-.006-1.23l-.077-.088l-.095-.084a1 1 0 0 0-1.232.006l-.088.078l-3.005 3.003l-.083.095a1 1 0 0 0 .006 1.231l.077.087l3.005 3.003l.095.084a1 1 0 0 0 1.397-1.41l-.077-.087l-1.304-1.303H15l.24-.003a6.997 6.997 0 0 0 5.546-10.927z"/>
  </g>
</svg>